<svg xmlns="http://www.w3.org/2000/svg" width="40" height="40" version="1.0" viewBox="0 0 512 512"><path d="m120.8 48.7-73.7.3-2 2.6c-2 2.6-2.1 3.8-2.1 35.1v32.5l2.9 2.9 2.9 2.9H188v104.6l10.5 28.9c6.8 18.8 11.3 29.6 12.6 30.8 1.8 1.5 4.4 1.7 19 1.7H247v36.2c0 39 .2 40.2 5.2 42.5 1.9 1 3.3 1 5.8.2 5.8-2.1 6-3.7 6-43.4V291h16.8c17.3-.1 18.7-.4 21-4.5.5-1.1 5.6-14.5 11.1-29.7l10.1-27.7V125h140.2l2.9-2.9 2.9-2.9V86.6c0-32.3 0-32.5-2.2-35l-2.3-2.4-135-.4c-74.2-.2-168.2-.3-208.7-.1M188 86.5V108H59V65h129zm118 0V108H204V65h102zm147 0V108H323V65h130zm-147 86V220H204v-95h102zm-4 64.9c0 1.2-8.8 26.3-12.2 34.8l-1 2.8-33.5-.3-33.5-.2-6.4-17.4c-3.5-9.5-6.6-18.2-6.9-19.2-.6-1.8.7-1.9 46.4-1.9 39.4 0 47.1.2 47.1 1.4M82.3 389c-1.2.5-2.6 1.8-3.2 2.9-.7 1.3-1.1 13.4-1.1 34.5 0 37-.2 35.9 8.2 37.1 2.4.3 80.2.5 173 .3l168.6-.3 2.6-2.4 2.6-2.4v-32.6c-.1-34.3-.1-34.5-4.7-36.9-2.6-1.5-342.5-1.6-346-.2M417 426v21h-22v-5.5c0-4.6-.4-6-2.5-8-3-3.1-7.3-3.2-10.9-.4-2.3 1.8-2.6 2.8-2.6 8v5.9h-50v-5.5c0-6.7-2.9-10.5-8-10.5s-8 3.8-8 10.5v5.5h-48.8l-.4-5.7c-.4-4.6-1-6.1-3.2-8-6.5-5.6-13.6-.8-13.6 9.1v4.6h-49v-4.6c0-9.8-6.8-14.5-13.4-9.3-2.3 1.8-2.6 2.8-2.6 8v5.9h-50v-5.5c0-6.7-2.9-10.5-8-10.5s-8 3.8-8 10.5v5.5H94v-42h323z"/></svg>