<svg xmlns="http://www.w3.org/2000/svg" width="40" height="40" version="1.0" viewBox="0 0 512 512"><path d="M232.1 24.7c-1.5 1.3-5 10.9-12.3 33.5l-10.1 31.7-12.4 4.6-12.5 4.5-27.1-17.2c-15-9.4-28.4-17.6-29.9-18.2-3.3-1.2-3.5-1.1-24 16.2-8.2 6.8-14.9 13.2-15 14.1-.3 3.5.6 6.1 12.2 34.4 6.6 16.1 12 29.8 12 30.4 0 1.7-12.2 22.5-13.4 22.9-.6.2-15.7 2.4-33.6 4.9-25.6 3.5-32.8 4.8-34.1 6.2-2.5 2.5-9.7 43.2-8.3 46.9.7 2 6.8 5.6 30.4 18.1 16.2 8.5 29.6 15.7 29.8 15.8.1.1 1.3 6.1 2.6 13.2l2.3 12.9-4.6 5C57.2 333.9 43 350.3 43 352.1c0 1.1 4 8.9 8.9 17.4l8.9 15.4-13.3 11.5c-14.1 12.2-19.3 18.7-22.5 28.2-4.3 12.5-3.5 24.6 2.4 36.9 5.8 12 14.1 19.5 27.1 24.5 8.5 3.3 22.4 3.4 31.6.2 11.5-3.9 15.7-7.8 42.8-39 13.9-16.1 25.4-29.2 25.6-29s-.1 10.6-.7 23.1c-.8 19.3-.7 23.2.5 25 1 1.6 7.2 4.3 21.4 9.5 11 3.9 21.1 7.2 22.5 7.2 3.2 0 4.1-1.1 26.2-29.8l18.8-24.2h26.3l19 24.6c22.6 29.3 22.7 29.4 26 29.4 3.8 0 40.7-13.8 43-16 2.2-2.3 2.2-4.2.4-46l-1-23.5 3.3-2.8c1.8-1.6 6.5-5.5 10.3-8.6l7-5.8 32.7 7c26.6 5.8 33.2 6.9 35.1 6 3.3-1.5 23.7-36.9 23.7-41.1 0-2.5-3.8-7.1-22.5-27.8-12.4-13.6-22.5-25.3-22.4-25.8 0-.6 1-6.5 2.2-13.1l2.2-12 29-15.2c16.6-8.7 29.8-16.2 30.9-17.6 1.8-2.4 1.7-2.8-1.8-23.3-2.1-11.5-4.1-21.9-4.6-23.1-1.3-3.1-4.2-3.7-39-8.4-16.8-2.3-30.6-4.2-30.6-4.3-.1 0-3.1-5.2-6.8-11.4l-6.5-11.3 12.4-30.5c6.9-16.8 12.5-31.5 12.5-32.7 0-3-.5-3.5-8.5-10.3-25.8-22-26.7-22.6-29.4-22.1-1.5.3-15.2 8.5-30.5 18.1L327.8 99l-12.1-4.4c-6.7-2.4-12.5-5-12.9-5.7-.4-.8-5.3-15.5-10.8-32.6-7.4-23-10.6-31.5-12-32.3-1.1-.6-10.8-1-23.8-1-19.5 0-22.2.2-24.1 1.7m49 43.2c5.5 17 10.6 31.2 11.6 32.2 2.7 2.5 35.1 14.1 37.5 13.3 1.1-.3 14-8.2 28.8-17.6l26.9-16.9 11.5 9.6 11.5 9.6-3.9 9.2c-18.6 44.8-21.2 52-20 54.6 3.5 7.8 18.4 32.1 20 32.6 1 .3 15.8 2.5 32.9 4.9 17.1 2.3 31.3 4.4 31.5 4.7.8.8 5.6 28.1 5.1 28.9-.3.5-13.1 7.4-28.5 15.5-16.1 8.4-28.7 15.6-29.4 16.8-.8 1.2-2.7 9.9-4.3 19.4-2.3 13.4-2.7 17.7-1.9 19.6.6 1.4 9.2 11.5 19.2 22.4 9.9 10.9 19.4 21.4 21.1 23.3l3 3.5-6.7 11.9c-3.8 6.5-7.2 12.2-7.7 12.7-.6.6-12.8-1.6-31.3-5.6-16.7-3.6-31.5-6.5-32.9-6.5-1.9 0-6.4 3.2-16.1 11.3-7.4 6.3-14.1 12.1-14.8 13-1.1 1.3-1.1 7.3-.1 34.1.7 18 1 32.9.6 33.2-.3.3-6.5 2.8-13.9 5.5-10.3 3.8-13.5 4.6-14.4 3.6-.6-.7-9.6-12.1-19.9-25.5-10.3-13.3-19.5-24.7-20.5-25.2-2.6-1.4-36.3-1.3-39.2.1-1.7.8-27.7 33.2-40.4 50.4-.9 1.2-3.1.7-15.3-3.7l-14.3-5.2.6-7c.3-3.9.9-16.8 1.2-28.6l.7-21.5 14.4-16.7c7.9-9.2 14.7-17 15.2-17.2.4-.3 4.6 1.1 9.4 3 15.6 6.3 26.4 8.5 43.2 9.1 28.2.9 51.5-5.4 73.7-20 29-19.1 48-47.2 55.3-82.2 2.1-9.7 2.5-32.8.7-43.1-8-47.7-41.6-86.5-87-100.8-14.2-4.4-25.8-5.9-42.7-5.3-25.7 1-44.5 7.1-66.1 21.5-27.4 18.4-47.6 49.7-53.5 83.2-1.7 9.6-1.7 32.4 0 42 1.7 9.7 6.6 24.9 10.3 32.4 1.7 3.3 2.6 6.1 2 6.5-.5.3-16.8 14.3-36.1 31.1-19.4 16.8-35.6 30.6-36.1 30.8-.6.2-13-20.1-13-21.3 0-.2 9.9-11.3 22-24.7 16.5-18.2 22-24.9 22-26.8 0-4-5.7-34.6-6.8-36.6-.6-1.1-13.8-8.6-29.4-16.8s-28.5-15-28.7-15.2.7-6.7 2-14.5c2-12.1 2.6-14.3 4.4-15 1.1-.4 15.7-2.6 32.5-4.9 23.5-3.2 30.9-4.5 32.2-5.8 2.9-3 18.8-31.2 18.8-33.5 0-1.2-5.4-15.6-12.1-32-6.7-16.3-12-29.9-11.8-30 .4-.3 17.9-14.8 21-17.4 1.4-1.2 5.1.8 29.5 16.2 15.3 9.6 28.4 17.5 29 17.5 1.2 0 23.2-7.9 32.2-11.5 2.6-1.1 4.8-2.8 5.6-4.4.7-1.4 5.5-15.8 10.6-31.9l9.4-29.2 15 .2 15 .3zm3.4 76.6c59.9 15.8 95.8 76.7 80.5 136.6-6.2 24.1-21.3 46.6-41.5 61.8-9.5 7.2-26.9 15.5-39 18.8-9.1 2.4-11.7 2.7-28 2.7s-18.9-.2-27.5-2.6c-5.2-1.4-11.9-3.6-14.8-4.9l-5.2-2.4 7.1-8.3c5-5.8 7.7-8.2 8.8-7.8 22.9 7.5 41.5 8 61.6 1.5 42.5-13.7 69.9-58.3 62.4-101.7-1.3-7.4-3.5-10.2-8.1-10.2-2.8 0-6.5 3.3-33.7 30.5l-30.6 30.4-19.7-6.2c-10.8-3.4-20-6.5-20.3-6.9-.4-.3-3.5-9.6-7-20.5l-6.3-19.8 30.9-31c26.8-26.9 30.9-31.4 30.9-34 0-5.4-2.1-6.7-13.3-8.5-26.5-4.3-56.1 5.1-76.1 23.9-19.3 18.3-28.8 40.6-28.7 67.6 0 11.3 1.4 19.6 5.6 32.1.6 1.8-.7 3.3-7.6 9.3-4.5 3.9-8.5 7.1-8.9 7.1-.5 0-2-2.9-3.4-6.5-21.7-54.3.8-115.3 52.2-141.9 18.6-9.6 32.8-12.7 54.7-12.2 12.2.4 16.9.9 25 3.1m-48.2 57.7c-14.9 15-27.4 28.2-27.7 29.4-.8 2.7 14.9 52.2 17.3 54.7 1.8 1.9 49.7 17.7 53.6 17.7 1.2 0 12.1-10.1 29.3-27.3l27.4-27.2-.5 9c-1.9 30.4-22.8 57.6-51.9 67.6-19 6.5-37 5.8-56.7-2-4.4-1.8-5.9-2-8-1.1-1.4.6-28 30.6-59.1 66.7-70.2 81.4-67.3 78.3-75.2 81.9-12.4 5.7-27.2 3.3-37.7-6.1-2.2-2.1-5.5-6.7-7.3-10.3-2.9-5.9-3.3-7.6-3.3-14.8 0-7.3.4-8.8 3.5-15 3.8-7.4 4.8-8.3 118.5-106.4 16.2-14 29.8-26.4 30.1-27.6.3-1.1-.6-4.9-2-8.5-5.1-13.1-6.8-25.1-5.5-38.4 3.9-38.6 36.8-68.9 75.4-69.4l7-.1z"/><path d="M64.1 419.6c-7.1 3.6-10.4 8.6-10.9 16.8-.6 9.2 3.2 15.8 11.5 20 3.9 1.9 12.2 2.1 16.6.3 4.5-2 10.4-8.8 11.8-13.9C96.5 430.1 86 417 72.4 417c-1.6 0-5.4 1.2-8.3 2.6m13.5 14c2 1.9 2.4 3.1 1.9 5.2-1.8 7.8-12.5 6.6-12.5-1.4 0-2.3.7-3.8 2.2-4.8 3.2-2.3 5.5-2 8.4 1"/></svg>