<svg xmlns="http://www.w3.org/2000/svg" width="40" height="40" version="1.0" viewBox="0 0 512 512"><path d="M55.5 10.6C39.5 14 22 25.7 13.1 39.1c-4.7 7-5.1 9.7-1.8 12.7 2.2 2.1 3.1 2.2 31.7 2.4l29.4.3L79.1 66c3.7 6.3 6.8 11.8 6.8 12.3.1.4-2.9 6.1-6.6 12.7l-6.8 11.9-29.3.1H13.9l-2.4 2.5c-1.4 1.3-2.5 3.1-2.5 4 0 6 13.8 21.6 25 28.3 3.9 2.3 10.6 5.5 14.8 7 6.9 2.4 9.1 2.7 21.2 2.6 11.9 0 14.4-.3 21.3-2.6 17.7-6 31.5-17.7 40.9-34.7l1.7-3.1h244.2l1.7 3.1c9.4 17.2 23 28.7 40.9 34.7 6.9 2.3 9.4 2.6 21.3 2.6 12.2.1 14.2-.2 21.5-2.7 4.4-1.6 11.2-4.8 15.1-7.3 11.1-6.9 24.4-22.1 24.4-27.9 0-.9-1.1-2.7-2.5-4l-2.4-2.5h-29.3l-29.3-.1-6.7-11.9c-3.8-6.6-6.8-12.3-6.7-12.7 0-.5 3.1-6 6.8-12.3l6.7-11.5 29.4-.3c28.6-.2 29.5-.3 31.7-2.4 3.3-3 2.9-5.7-1.8-12.7-5.3-8-15.3-17-23.7-21.4-21.2-11.1-42.9-11.4-64.2-1-8 3.8-10.9 6-18.1 13.2-5.2 5.2-9.7 10.9-11.5 14.3l-2.9 5.8h-245l-2.9-5.8c-1.8-3.4-6.3-9.1-11.5-14.3-7.2-7.2-10.1-9.3-18.1-13.2-15.1-7.4-29.9-9.3-45.5-6.1m25 13.5c7.7 1.4 17.5 5.9 24.3 11.1 5.6 4.4 12.7 13.5 15.8 20.3 1 2.2 2.7 5 3.8 6.2l1.9 2.3H256c123.2 0 129.8-.1 131.3-1.8.9-1 3.2-5 5.2-9 9-18 29.2-30.2 50-30.2 11.6 0 26.6 5.7 34.9 13.2l4.1 3.7-23.7.1c-23.1 0-23.7.1-26.2 2.2C428 45.4 411 75.5 411 78.6c0 2.7 18.1 35 20.8 37.1 1.2 1 7.9 1.3 25.6 1.3h24l-3.4 3.5c-8.3 8.6-24.5 14-39.5 13.2-10.7-.6-18.1-3.1-27.7-9.4-8.4-5.5-13.8-11.7-18.5-21.1-2-4.1-4.6-8-5.7-8.8-3.1-2.1-258.1-2.1-261.2 0-1.1.8-3.7 4.7-5.7 8.8-4.7 9.4-10.1 15.6-18.5 21.1-9.6 6.3-17 8.8-27.7 9.4-15 .8-28.8-3.7-38.8-12.8l-4.2-3.8 24.1-.1c17.6 0 24.4-.3 25.6-1.3 2.7-2.1 20.8-34.4 20.8-37.1 0-3.1-17-33.2-20.6-36.4-2.5-2.1-3.1-2.2-26.2-2.2l-23.7-.1L35 36c11.9-10.5 29.1-15 45.5-11.9"/><path d="M242.5 134.1c-5.1 1.4-8.4 5.8-9.5 12.4-.5 3.1-1.7 6.8-2.5 8.2-4.3 6.5-14.4 8.4-20.6 3.8-10.9-8-14.3-7.3-26.7 4.8-13.8 13.5-14.8 16.7-8.5 25.8 4.8 7.1 5.6 13.8 2.1 18.9-2.7 4-7.9 7-12.4 7-4.1 0-9.5 3.7-11.6 8-2.4 4.8-2.5 24.1-.2 30 1.9 4.6 6 7.5 12.3 8.4 2.4.4 5.6 1.3 7.2 2.2 6.9 3.5 9.2 14 4.4 20.5-8.2 11.1-7.5 15 4.7 27.5 12.2 12.6 16.8 14 25.9 7.8 3-2 7-3.9 9-4.1 8.4-1.2 15.3 4.1 16.4 12.5.8 6.3 3.5 11.2 7.6 13.4 4.6 2.5 26.4 2.6 31.5.2 4.2-2 7-6.5 7.8-12.8 1.6-12.5 14.4-17.7 24.4-9.8 8.6 6.9 13.6 5.8 25.2-5.4 13.9-13.4 14.9-17.8 6.5-29.3-3.2-4.3-3.4-11.1-.5-15.9 2.2-3.6 8.8-7.1 13.3-7.2 4.6 0 8.7-2.8 10.8-7.3 2.6-5.9 2.7-25.5.1-30.7-2.1-4.3-7.5-8-11.6-8-7.8 0-14.6-6.9-14.6-14.8 0-3.5.8-5.7 4-10.4 6.6-10 5.8-12.8-8.2-26.5-12.4-12.1-15.8-12.8-26.7-4.8-6.2 4.6-16.3 2.7-20.6-3.8-.8-1.4-2-5.1-2.5-8.2-1.1-6.8-4.4-11-9.9-12.5-4.4-1.2-22.4-1.2-26.6.1m23 17.1c1.5 9 7.6 17.2 15.8 21.4 4.2 2.3 16.3 3 21.3 1.4 2.2-.7 5.6-2.4 7.7-3.8l3.8-2.6 6.2 6.2c5.4 5.4 6 6.4 4.9 8-8.4 11.6-8.3 26.9.5 37.1 4 4.7 11.1 8.7 17.2 9.7l4.1.7v17.5l-5.1 1.1c-9.4 2-15.6 6.8-19.8 15.3-2.5 5-3.1 7.3-3.1 12.9 0 5.8.5 7.7 3.5 13.5l3.6 6.8-6.2 6.2-6.2 6.3-3.4-2.6c-15.9-12.1-39.9-2.8-44.4 17.3l-1.2 5.4h-17.4l-1.2-5.4c-2.3-10.4-10.5-19-20.6-21.7-8.1-2.2-19.5.1-25 5.2-2.1 1.8-2.2 1.8-8.3-4.4l-6.3-6.3 3.6-6.8c3-5.8 3.5-7.7 3.5-13.4-.1-14.3-8.9-25.3-22.8-28.2l-5.2-1.2v-17.5l4.1-.7c18.4-2.9 29.5-23.8 21.4-40.1-1.3-2.8-3-5.8-3.7-6.7-1.1-1.6-.5-2.6 4.9-8l6.2-6.2 3.8 2.6c2.1 1.3 5.3 3 7.2 3.6 4.5 1.6 14.7 1.4 19.4-.2 8.6-3.1 15.6-11.4 17.8-21.2l1.2-5.4h17.5z"/><path d="M245.5 185.2c-2.7.5-8.6 2.6-13 4.8-18.1 8.7-30.4 28.2-30.5 48.1 0 7.6 3.3 19.9 7.2 26.8 9.2 16.2 28 27.1 46.8 27.1 18.7 0 37.7-11 46.8-27.1 3.9-6.9 7.2-19.2 7.2-26.8-.1-33.3-31.6-59.1-64.5-52.9m20 14.3c24.5 6.4 37.1 32.6 26.6 55-8.7 18.8-29.2 27.9-48.3 21.4-37.7-12.7-36.2-66 2.2-76.3 7.2-1.9 12.3-1.9 19.5-.1M25.9 216.5c-9.2 4.8-15.8 15.7-16.7 27.4-.4 6.4.1 8.3 17.7 61.6C47 366.9 49 372.2 55.5 382c5.4 8.1 5.6 8.3 34.1 27.8 23.9 16.5 24.9 17.5 27.7 28.5l1.5 5.7h-2.6c-8.4 0-16.1 5.4-18.1 12.5-1.4 5-1.4 28.8-.1 33.7 1.4 4.8 5.5 9.7 9.7 11.4 4.2 1.8 109.4 2.1 114 .3 3.5-1.3 7-4.5 9.1-8.4 2.1-4 2.9-26.7 1.2-34.9-1.5-7.1-5.8-11.9-12.7-13.8l-4.7-1.3-8.7-35c-9.5-38.6-11.2-43.7-17.1-52.5-6.3-9.6-15-15.7-29.9-21.1-6.8-2.5-11.9-5.6-27.1-16.5-19.6-14.1-24-16.4-31.8-16.4h-4.7l-13.2-31.1c-14.5-33.9-17.8-40.4-24.6-47.3-9.1-9.4-21.8-12.2-31.6-7.1M43.7 230c3.8 2.3 8.4 8.3 12.3 16 2.9 5.9 26 60.2 26 61.2 0 .4-1.2 2-2.6 3.5-8.6 9.1-9.3 24.4-1.7 34.6 1.6 2.1 14.1 11.8 29.2 22.7 27.7 19.9 30.1 21.1 34.3 17.3 2.6-2.3 2.3-7.5-.4-10-1.3-1.1-13.4-9.9-26.9-19.6C85 335 83.2 332.8 87.7 323.3c2.1-4.4 6.7-7.3 11.6-7.3 5 0 5 0 26.7 15.6 15.4 11 20 13.7 26.5 15.9 14.6 4.8 22.6 11 27.6 21 2 4.2 5.9 17.6 11.5 40 4.6 18.6 8.4 34.1 8.4 34.6s-14.8.9-33.4.9h-33.4l-2.1-8.8c-2.5-9.9-5.3-15.1-10.8-20.3-2.1-2.1-13.5-10.3-25.3-18.4s-22.8-15.9-24.3-17.3c-5.8-5.4-11.5-20.1-29.7-75.4-9.9-30.1-18-56-18-57.6 0-5.1 3-12 6.6-15.2 4.2-3.6 9.3-4 14.1-1m173.7 229.6c1.3 1.2 1.6 4 1.6 13.5 0 6.6-.5 12.9-1 14-1 1.8-2.7 1.9-52.8 1.9-39 0-52.1-.3-53-1.2-1.7-1.7-1.7-26.9 0-28.6.9-.9 13.9-1.2 52.4-1.2 45.3 0 51.4.2 52.8 1.6M464.3 216.5c-6.3 2.9-13.1 9.6-17.8 17.6-1.8 3.2-9.3 19.8-16.6 36.8L416.7 302H412c-7.8 0-12.2 2.3-31.8 16.4-14.6 10.5-20.3 14-26.2 16.1-17.6 6.3-28 14.8-34.7 28.1-3 6.1-5.7 15.5-12.8 44.3l-9.1 36.5-4.1 1.2c-5.6 1.7-8.9 4-11.5 8.3-2.2 3.4-2.3 4.7-2.3 20.6 0 13.9.3 17.5 1.7 20 2.1 3.9 5.6 7.1 9.1 8.4 4.6 1.8 109.8 1.5 114-.3 4.2-1.7 8.3-6.6 9.7-11.4 1.5-5.5 1.2-29.9-.4-34.5-2.5-6.9-6.9-10.1-15.4-11.5l-4.9-.7 1.9-7.1c1.3-4.9 2.9-8.2 4.9-10.2 1.7-1.7 10.7-8.4 20.2-14.8 28.6-19.6 30.9-21.5 36.1-29.2 6.6-10 8.5-15.1 28.7-76.7 17.9-54.4 18.1-55.1 17.6-61.8-1.9-22.2-20.7-35.5-38.4-27.2m18.1 14.5c3.6 3.2 6.6 10.1 6.6 15.2 0 1.6-8.1 27.5-18 57.6-18.2 55.3-23.9 70-29.7 75.4-1.5 1.4-12.5 9.2-24.3 17.3s-23.2 16.4-25.3 18.4c-5.5 5.2-8.3 10.4-10.8 20.3l-2.1 8.8h-33.4c-26.1 0-33.4-.3-33.4-1.3 0-.6 3.8-16.2 8.5-34.6 5.4-21.7 9.5-35.7 11.5-39.7 4.9-9.9 12.9-16.1 27.5-20.9 6.7-2.3 11.1-4.9 26.5-16 21.7-15.5 21.7-15.5 26.7-15.5 4.9 0 9.5 2.9 11.6 7.3 4.5 9.5 2.7 11.7-26.2 32.4-13.5 9.7-25.6 18.5-26.8 19.6-2.7 2.4-3 7.2-.6 9.9 3.8 4.2 6.5 2.9 34.3-17.2 15.5-11.1 27.6-20.5 29.3-22.7 7.7-10.3 6.9-25.5-1.7-34.7-1.5-1.6-2.6-3.6-2.3-4.5.8-2.9 23.5-55.8 26.1-60.8 8.2-16.1 17.8-21.4 26-14.3m-82.6 228.2c.8.8 1.2 5.4 1.2 14.3s-.4 13.5-1.2 14.3c-.9.9-14 1.2-53 1.2-50.1 0-51.8-.1-52.8-1.9-.5-1.1-1-7.4-1-14 0-9.5.3-12.3 1.6-13.5 1.4-1.4 7.5-1.6 52.8-1.6 38.5 0 51.5.3 52.4 1.2"/></svg>