<svg xmlns="http://www.w3.org/2000/svg" width="800" height="800" fill="none" viewBox="0 0 24 24"><path fill="#0F0F0F" fill-rule="evenodd" d="M3 3a3 3 0 0 0-3 3v9c0 1.312.842 2.427 2.016 2.835A3.5 3.5 0 0 0 8.965 18h6.07a3.501 3.501 0 0 0 6.95-.165A3 3 0 0 0 24 15v-4.248a3 3 0 0 0-.742-1.976L20.85 6.024A3 3 0 0 0 18.592 5H16.83A3 3 0 0 0 14 3zm1 14.436v.128a1.501 1.501 0 0 0 3 0v-.128a1.501 1.501 0 0 0-3 0M5.5 14a3.5 3.5 0 0 1 3.163 2h6.674a3.5 3.5 0 0 1 6.235-.18A1 1 0 0 0 22 15v-4h-5a2 2 0 0 1-2-2V6a1 1 0 0 0-1-1H3a1 1 0 0 0-1 1v9c0 .34.17.64.428.82A3.5 3.5 0 0 1 5.5 14M17 7v1a1 1 0 0 0 1 1h2.796l-1.451-1.659A1 1 0 0 0 18.593 7zm0 10.436v.128a1.501 1.501 0 0 0 3 0v-.128a1.501 1.501 0 0 0-3 0" clip-rule="evenodd"/></svg>