<svg xmlns="http://www.w3.org/2000/svg" width="800" height="800" fill="none" viewBox="0 0 24 24"><path stroke="#000" stroke-linecap="round" stroke-linejoin="round" stroke-width="2" d="M7 14.001h10m-10 0v-2.4c0-.56 0-.84.109-1.054a1 1 0 0 1 .437-.437c.214-.109.494-.109 1.054-.109h6.8c.56 0 .84 0 1.054.11a1 1 0 0 1 .437.436c.109.214.109.494.109 1.054v2.4m-10 0v7m10-7v7m1.347-14.826-4.2-2.1c-.787-.394-1.181-.59-1.594-.668a3 3 0 0 0-1.106 0c-.413.077-.806.274-1.594.668l-4.2 2.1c-.963.481-1.444.722-1.796 1.081a3 3 0 0 0-.693 1.121C3 8.853 3 9.391 3 10.467v8.934c0 .56 0 .84.109 1.054a1 1 0 0 0 .437.437c.214.11.494.11 1.054.11h14.8c.56 0 .84 0 1.054-.11a1 1 0 0 0 .437-.437c.109-.214.109-.494.109-1.054v-8.933c0-1.077 0-1.615-.164-2.09a3 3 0 0 0-.693-1.122c-.352-.359-.833-.6-1.796-1.081"/></svg>