<svg xmlns="http://www.w3.org/2000/svg" version="1.1" xmlns:xlink="http://www.w3.org/1999/xlink" width="1000" height="1000"><style>
    #light-icon {
      display: inline;
    }
    #dark-icon {
      display: none;
    }

    @media (prefers-color-scheme: dark) {
      #light-icon {
        display: none;
      }
      #dark-icon {
        display: inline;
      }
    }
  </style><g id="light-icon"><svg xmlns="http://www.w3.org/2000/svg" version="1.1" xmlns:xlink="http://www.w3.org/1999/xlink" width="1000" height="1000"><g clip-path="url(#SvgjsClipPath1357)"><rect width="1000" height="1000" fill="#fcf784"></rect><g transform="matrix(15.555555555555555,0,0,15.555555555555555,157.99140222222218,150)"><svg xmlns="http://www.w3.org/2000/svg" version="1.1" xmlns:xlink="http://www.w3.org/1999/xlink" width="43.972534" height="45"><svg width="43.972534" height="45.000000" viewBox="0 0 43.9725 45" fill="none" xmlns="http://www.w3.org/2000/svg" xmlns:xlink="http://www.w3.org/1999/xlink">
	<desc>
			Created with Pixso.
	</desc>
	<defs><clipPath id="SvgjsClipPath1357"><rect width="1000" height="1000" x="0" y="0" rx="500" ry="500"></rect></clipPath></defs>
	<path id="Subtract (Border)" d="M29 22.81L43.97 7.84C39.38 3.04 32.58 0 25 0C11.19 0 0 10.07 0 22.5C0 34.92 11.19 45 25 45C32.41 45 39.07 42.09 43.65 37.47L29 22.81ZM34.44 4.88C36.35 5.69 38.08 6.71 39.63 7.94L24.75 22.81L39.29 37.35C38.18 38.21 37.02 38.95 35.79 39.57C32.6 41.19 29 42 25 42C21.26 42 17.86 41.28 14.8 39.84C12.83 38.91 11.01 37.69 9.32 36.18C6.81 33.91 5.04 31.37 4.02 28.56C3.34 26.66 3 24.64 3 22.5C3 20.35 3.34 18.33 4.02 16.43C5.04 13.62 6.81 11.08 9.32 8.81C11.01 7.3 12.83 6.08 14.8 5.15C17.86 3.71 21.26 3 25 3C27.25 3 29.42 3.28 31.52 3.86C32.51 4.14 33.48 4.48 34.44 4.88Z" fill="#000000" fill-opacity="1.000000" fill-rule="evenodd"></path>
	<path id="Line 1 (Border)" d="M41 9.5L8 9.5L8 6.5L41 6.5L41 9.5Z" fill="#000000" fill-opacity="1.000000" fill-rule="evenodd"></path>
	<path id="Line 2 (Border)" d="M25.5 8L25.5 43L22.5 43L22.5 8L25.5 8Z" fill="#000000" fill-opacity="1.000000" fill-rule="evenodd"></path>
	<path id="Line 2 (Border)" d="M10.5 7L10.5 38L7.5 38L7.5 7L10.5 7Z" fill="#000000" fill-opacity="1.000000" fill-rule="evenodd"></path>
</svg></svg></g></g></svg></g><g id="dark-icon"><svg xmlns="http://www.w3.org/2000/svg" version="1.1" xmlns:xlink="http://www.w3.org/1999/xlink" width="1000" height="1000"><g clip-path="url(#SvgjsClipPath1358)"><rect width="1000" height="1000" fill="#fcf784"></rect><g transform="matrix(15.555555555555555,0,0,15.555555555555555,157.99140222222218,150)"><svg xmlns="http://www.w3.org/2000/svg" version="1.1" xmlns:xlink="http://www.w3.org/1999/xlink" width="43.972534" height="45"><svg width="43.972534" height="45.000000" viewBox="0 0 43.9725 45" fill="none" xmlns="http://www.w3.org/2000/svg" xmlns:xlink="http://www.w3.org/1999/xlink">
	<desc>
			Created with Pixso.
	</desc>
	<defs><clipPath id="SvgjsClipPath1358"><rect width="1000" height="1000" x="0" y="0" rx="500" ry="500"></rect></clipPath></defs>
	<path id="Subtract (Border)" d="M29 22.81L43.97 7.84C39.38 3.04 32.58 0 25 0C11.19 0 0 10.07 0 22.5C0 34.92 11.19 45 25 45C32.41 45 39.07 42.09 43.65 37.47L29 22.81ZM34.44 4.88C36.35 5.69 38.08 6.71 39.63 7.94L24.75 22.81L39.29 37.35C38.18 38.21 37.02 38.95 35.79 39.57C32.6 41.19 29 42 25 42C21.26 42 17.86 41.28 14.8 39.84C12.83 38.91 11.01 37.69 9.32 36.18C6.81 33.91 5.04 31.37 4.02 28.56C3.34 26.66 3 24.64 3 22.5C3 20.35 3.34 18.33 4.02 16.43C5.04 13.62 6.81 11.08 9.32 8.81C11.01 7.3 12.83 6.08 14.8 5.15C17.86 3.71 21.26 3 25 3C27.25 3 29.42 3.28 31.52 3.86C32.51 4.14 33.48 4.48 34.44 4.88Z" fill="#000000" fill-opacity="1.000000" fill-rule="evenodd"></path>
	<path id="Line 1 (Border)" d="M41 9.5L8 9.5L8 6.5L41 6.5L41 9.5Z" fill="#000000" fill-opacity="1.000000" fill-rule="evenodd"></path>
	<path id="Line 2 (Border)" d="M25.5 8L25.5 43L22.5 43L22.5 8L25.5 8Z" fill="#000000" fill-opacity="1.000000" fill-rule="evenodd"></path>
	<path id="Line 2 (Border)" d="M10.5 7L10.5 38L7.5 38L7.5 7L10.5 7Z" fill="#000000" fill-opacity="1.000000" fill-rule="evenodd"></path>
</svg></svg></g></g></svg></g></svg>