<svg xmlns="http://www.w3.org/2000/svg" width="85" height="85" fill="none"><path fill="#0C54A0" d="M77.89 0H6.777A6.777 6.777 0 0 0 0 6.777V77.89a6.777 6.777 0 0 0 6.777 6.777H77.89a6.777 6.777 0 0 0 6.777-6.777V6.777A6.777 6.777 0 0 0 77.89 0"/><path fill="#FFF01E" d="M78.767 42.334c0 20.122-16.312 36.433-36.434 36.433S5.9 62.456 5.9 42.334 22.212 5.9 42.333 5.9c20.122 0 36.434 16.312 36.434 36.434"/><path fill="#0C54A0" d="M39.493 35.878H31.93l-8.816 9.025v-18.32h-6.77V57.98h6.77v-9.902l8.48 9.902h8.566L29.674 45.863z"/><path fill="#F52D0E" d="M44.673 33.83q-1.546 0-2.632-1.086t-1.086-2.632q0-1.545 1.086-2.632 1.086-1.086 2.632-1.086 1.545 0 2.633 1.086 1.086 1.087 1.086 2.632t-1.087 2.632-2.632 1.086"/><path fill="#0C54A0" d="M48.057 57.98H41.29V35.878h6.768zM68.321 41.518v-5.64h-6.183v-9.294h-6.77v9.294h-4.47v5.64h4.47v9.736q0 3.468 2.027 5.243 2.027 1.777 5.996 1.776.96 0 2.382-.188 1.42-.188 2.34-.48V52.13q-.837.251-1.546.355-.711.105-1.505.105-1.629 0-2.277-.606t-.647-2.068v-8.399z"/></svg>