<?xml version="1.0" standalone="no"?>
<!DOCTYPE svg PUBLIC "-//W3C//DTD SVG 20010904//EN"
 "http://www.w3.org/TR/2001/REC-SVG-20010904/DTD/svg10.dtd">
<svg version="1.0" xmlns="http://www.w3.org/2000/svg"
 width="137.000000pt" height="141.000000pt" viewBox="0 0 137.000000 141.000000"
 preserveAspectRatio="xMidYMid meet">

<g transform="translate(0.000000,141.000000) scale(0.100000,-0.100000)"
fill="#000000" stroke="none">
<path d="M625 1396 c-285 -56 -510 -242 -592 -490 -23 -70 -27 -98 -27 -201 0
-104 4 -131 28 -202 62 -190 225 -359 424 -439 120 -48 179 -59 327 -58 123 1
151 4 230 28 108 33 205 83 287 150 l60 49 -226 226 c-124 124 -226 231 -226
236 0 5 104 114 231 241 l231 232 -65 53 c-143 118 -304 178 -497 185 -73 2
-140 -1 -185 -10z m330 -102 c39 -9 102 -31 140 -49 l70 -33 -385 -1 c-429 -1
-427 -1 -258 60 135 50 279 57 433 23z m-255 -689 l0 -505 -23 0 c-67 0 -245
68 -318 122 l-29 22 0 433 0 433 185 0 185 0 0 -505z m480 502 c0 -1 -88 -90
-195 -197 l-195 -195 0 198 0 197 195 0 c107 0 195 -1 195 -3z m-952 -581 l-3
-186 -33 49 c-128 188 -128 444 0 632 l33 49 3 -179 c1 -99 1 -263 0 -365z
m977 -301 c-76 -59 -244 -119 -355 -126 l-55 -4 -3 290 -2 290 217 -217 c208
-209 217 -218 198 -233z"/>
</g>
</svg>
